<svg width="30" height="30" viewBox="0 0 30 30" fill="none" xmlns="http://www.w3.org/2000/svg">
<path d="M28.5057 1.17188L16.7998 9.86599L18.9645 4.73658L28.5057 1.17188Z" fill="#E2761B" stroke="#E2761B" stroke-linecap="round" stroke-linejoin="round"/>
<path d="M1.48242 1.17188L13.0942 9.94835L11.0354 4.73658L1.48242 1.17188Z" fill="#E4761B" stroke="#E4761B" stroke-linecap="round" stroke-linejoin="round"/>
<path d="M24.2939 21.3247L21.1763 26.1012L27.8469 27.9365L29.7645 21.4306L24.2939 21.3247Z" fill="#E4761B" stroke="#E4761B" stroke-linecap="round" stroke-linejoin="round"/>
<path d="M0.24707 21.4306L2.15295 27.9365L8.82354 26.1012L5.70589 21.3247L0.24707 21.4306Z" fill="#E4761B" stroke="#E4761B" stroke-linecap="round" stroke-linejoin="round"/>
<path d="M8.4472 13.2544L6.58838 16.0662L13.2119 16.3603L12.9766 9.24268L8.4472 13.2544Z" fill="#E4761B" stroke="#E4761B" stroke-linecap="round" stroke-linejoin="round"/>
<path d="M21.541 13.2543L16.9527 9.16016L16.7998 16.3602L23.4116 16.066L21.541 13.2543Z" fill="#E4761B" stroke="#E4761B" stroke-linecap="round" stroke-linejoin="round"/>
<path d="M8.82373 26.1011L12.8002 24.1599L9.36491 21.4775L8.82373 26.1011Z" fill="#E4761B" stroke="#E4761B" stroke-linecap="round" stroke-linejoin="round"/>
<path d="M17.1885 24.1599L21.1767 26.1011L20.6238 21.4775L17.1885 24.1599Z" fill="#E4761B" stroke="#E4761B" stroke-linecap="round" stroke-linejoin="round"/>
<path d="M21.1767 26.1013L17.1885 24.1602L17.5061 26.7602L17.4708 27.8543L21.1767 26.1013Z" fill="#D7C1B3" stroke="#D7C1B3" stroke-linecap="round" stroke-linejoin="round"/>
<path d="M8.82373 26.1013L12.5296 27.8543L12.5061 26.7602L12.8002 24.1602L8.82373 26.1013Z" fill="#D7C1B3" stroke="#D7C1B3" stroke-linecap="round" stroke-linejoin="round"/>
<path d="M12.5882 19.7599L9.27051 18.7835L11.6117 17.7129L12.5882 19.7599Z" fill="#233447" stroke="#233447" stroke-linecap="round" stroke-linejoin="round"/>
<path d="M17.3999 19.7599L18.3764 17.7129L20.7293 18.7835L17.3999 19.7599Z" fill="#233447" stroke="#233447" stroke-linecap="round" stroke-linejoin="round"/>
<path d="M8.8237 26.1012L9.38841 21.3247L5.70605 21.4306L8.8237 26.1012Z" fill="#CD6116" stroke="#CD6116" stroke-linecap="round" stroke-linejoin="round"/>
<path d="M20.6118 21.3247L21.1765 26.1012L24.2942 21.4306L20.6118 21.3247Z" fill="#CD6116" stroke="#CD6116" stroke-linecap="round" stroke-linejoin="round"/>
<path d="M23.4121 16.0659L16.8003 16.36L17.4121 19.76L18.3885 17.713L20.7415 18.7836L23.4121 16.0659Z" fill="#CD6116" stroke="#CD6116" stroke-linecap="round" stroke-linejoin="round"/>
<path d="M9.27073 18.7836L11.6237 17.713L12.5884 19.76L13.2119 16.36L6.58838 16.0659L9.27073 18.7836Z" fill="#CD6116" stroke="#CD6116" stroke-linecap="round" stroke-linejoin="round"/>
<path d="M6.58838 16.0659L9.36485 21.4777L9.27073 18.7836L6.58838 16.0659Z" fill="#E4751F" stroke="#E4751F" stroke-linecap="round" stroke-linejoin="round"/>
<path d="M20.7412 18.7836L20.6235 21.4777L23.4118 16.0659L20.7412 18.7836Z" fill="#E4751F" stroke="#E4751F" stroke-linecap="round" stroke-linejoin="round"/>
<path d="M13.2119 16.3599L12.5884 19.7599L13.3648 23.7716L13.5413 18.4893L13.2119 16.3599Z" fill="#E4751F" stroke="#E4751F" stroke-linecap="round" stroke-linejoin="round"/>
<path d="M16.8001 16.3599L16.4824 18.4775L16.6236 23.7716L17.4118 19.7599L16.8001 16.3599Z" fill="#E4751F" stroke="#E4751F" stroke-linecap="round" stroke-linejoin="round"/>
<path d="M17.4118 19.7602L16.6235 23.7719L17.1882 24.1602L20.6235 21.4778L20.7412 18.7837L17.4118 19.7602Z" fill="#F6851B" stroke="#F6851B" stroke-linecap="round" stroke-linejoin="round"/>
<path d="M9.27051 18.7837L9.36463 21.4778L12.7999 24.1602L13.3646 23.7719L12.5882 19.7602L9.27051 18.7837Z" fill="#F6851B" stroke="#F6851B" stroke-linecap="round" stroke-linejoin="round"/>
<path d="M17.4708 27.854L17.5061 26.7599L17.212 26.5011H12.7767L12.5061 26.7599L12.5296 27.854L8.82373 26.1011L10.1178 27.1599L12.7414 28.9834H17.2473L19.8826 27.1599L21.1767 26.1011L17.4708 27.854Z" fill="#C0AD9E" stroke="#C0AD9E" stroke-linecap="round" stroke-linejoin="round"/>
<path d="M17.1882 24.1602L16.6235 23.772H13.3647L12.8 24.1602L12.5059 26.7602L12.7764 26.5014H17.2117L17.5059 26.7602L17.1882 24.1602Z" fill="#161616" stroke="#161616" stroke-linecap="round" stroke-linejoin="round"/>
<path d="M29.0002 10.4307L30.0002 5.6307L28.5061 1.17188L17.1885 9.57188L21.5414 13.2542L27.6944 15.0542L29.0591 13.466L28.4708 13.0425L29.412 12.1836L28.6826 11.6189L29.6238 10.9013L29.0002 10.4307Z" fill="#763D16" stroke="#763D16" stroke-linecap="round" stroke-linejoin="round"/>
<path d="M0 5.6307L1 10.4307L0.364706 10.9013L1.30588 11.6189L0.588235 12.1836L1.52941 13.0425L0.941177 13.466L2.29412 15.0542L8.44706 13.2542L12.8 9.57188L1.48235 1.17188L0 5.6307Z" fill="#763D16" stroke="#763D16" stroke-linecap="round" stroke-linejoin="round"/>
<path d="M27.6941 15.0544L21.5412 13.2544L23.4118 16.0662L20.6235 21.4779L24.2941 21.4309H29.7647L27.6941 15.0544Z" fill="#F6851B" stroke="#F6851B" stroke-linecap="round" stroke-linejoin="round"/>
<path d="M8.44707 13.2544L2.29413 15.0544L0.24707 21.4309H5.70589L9.36472 21.4779L6.58825 16.0662L8.44707 13.2544Z" fill="#F6851B" stroke="#F6851B" stroke-linecap="round" stroke-linejoin="round"/>
<path d="M16.7999 16.3603L17.1881 9.57211L18.9763 4.73682H11.0352L12.7999 9.57211L13.2116 16.3603L13.3528 18.5015L13.3646 23.7721H16.6234L16.6469 18.5015L16.7999 16.3603Z" fill="#F6851B" stroke="#F6851B" stroke-linecap="round" stroke-linejoin="round"/>
</svg>
