<svg width="373" height="99" viewBox="0 0 373 99" fill="none" xmlns="http://www.w3.org/2000/svg">
<path d="M135.799 60.0399C141.203 60.0354 146.427 58.0999 150.529 54.5827C154.631 51.0654 157.341 46.1978 158.17 40.8583C159.917 29.7281 151.221 20.0118 138.898 20.0118H119.038C118.665 20.007 118.304 20.137 118.02 20.3779C117.735 20.6189 117.548 20.9544 117.492 21.3227L108.64 77.505C108.608 77.7102 108.621 77.9199 108.678 78.1198C108.734 78.3196 108.834 78.5049 108.969 78.6628C109.104 78.8207 109.271 78.9476 109.46 79.0347C109.648 79.1219 109.853 79.1672 110.061 79.1677H120.571C120.942 79.1714 121.303 79.0408 121.586 78.8C121.869 78.5592 122.056 78.2243 122.112 77.8568L124.716 61.353C124.772 60.9847 124.959 60.6489 125.242 60.4076C125.526 60.1663 125.888 60.0357 126.26 60.0399H135.799ZM144.595 40.3519C143.945 44.466 140.765 47.4979 134.679 47.4979H126.894L129.254 32.5291H136.897C143.194 32.5426 145.24 36.2556 144.595 40.3631V40.3519ZM203.703 37.7077H193.725C193.353 37.7033 192.991 37.8336 192.707 38.0744C192.423 38.3152 192.235 38.6505 192.179 39.0186L191.856 41.0891C191.856 41.0891 184.11 32.6299 170.4 38.3441C162.535 41.6179 158.761 48.383 157.157 53.3353C157.157 53.3353 152.054 68.3892 163.588 76.6781C163.588 76.6781 174.279 84.6465 186.321 76.1851L186.113 77.505C186.08 77.7103 186.093 77.9201 186.149 78.1202C186.206 78.3202 186.305 78.5056 186.44 78.6636C186.575 78.8216 186.743 78.9485 186.932 79.0355C187.12 79.1225 187.326 79.1676 187.534 79.1677H197.508C197.88 79.1725 198.242 79.0424 198.526 78.8015C198.81 78.5606 198.998 78.2251 199.054 77.8568L205.122 39.3704C205.154 39.1651 205.141 38.9554 205.084 38.7556C205.028 38.5557 204.929 38.3705 204.794 38.2125C204.659 38.0546 204.491 37.9277 204.303 37.8406C204.114 37.7535 203.911 37.7081 203.703 37.7077ZM189.033 58.9777C188.642 61.6593 187.293 64.1082 185.234 65.8703C183.175 67.6323 180.547 68.5878 177.837 68.5595C176.776 68.5716 175.72 68.4166 174.707 68.1002C170.405 66.7198 167.951 62.5832 168.657 58.1015C169.048 55.4126 170.403 52.9576 172.47 51.1942C174.537 49.4308 177.175 48.4794 179.892 48.5175C180.954 48.5063 182.012 48.6631 183.025 48.9791C187.312 50.355 189.75 54.4916 189.044 58.9777H189.033Z" fill="#003087"/>
<path d="M279.464 60.0399C284.87 60.0384 290.098 58.1045 294.204 54.5871C298.31 51.0697 301.023 46.2005 301.854 40.8583C303.6 29.7281 294.905 20.0118 282.579 20.0118H262.725C262.353 20.008 261.992 20.1385 261.708 20.3792C261.425 20.62 261.237 20.955 261.181 21.3227L252.303 77.5206C252.252 77.8302 252.305 78.1478 252.452 78.4245C252.6 78.7011 252.835 78.9213 253.121 79.0511C253.309 79.1392 253.515 79.1851 253.723 79.1856H264.235C264.607 79.1893 264.969 79.0585 265.252 78.8173C265.536 78.576 265.723 78.2406 265.779 77.8725L268.385 61.3687C268.44 61.0002 268.627 60.6642 268.911 60.4227C269.195 60.1813 269.557 60.0509 269.929 60.0556L279.464 60.0399ZM288.259 40.3519C287.609 44.4661 284.43 47.4979 278.341 47.4979H270.559L272.921 32.5291H280.564C286.856 32.5426 288.907 36.2556 288.259 40.3631V40.3519ZM347.366 37.7077H337.398C337.026 37.7039 336.666 37.8344 336.382 38.0751C336.098 38.3159 335.911 38.6509 335.855 39.0186L335.527 41.0891C335.527 41.0891 327.783 32.6299 314.074 38.3441C306.211 41.6179 302.435 48.383 300.828 53.3353C300.828 53.3353 295.728 68.3892 307.259 76.6781C307.259 76.6781 317.953 84.6465 329.995 76.1851L329.786 77.505C329.736 77.8145 329.788 78.1321 329.936 78.4088C330.084 78.6854 330.319 78.9057 330.604 79.0354C330.793 79.1251 330.999 79.1699 331.207 79.1699H341.181C341.554 79.1755 341.916 79.0454 342.2 78.8038C342.484 78.5623 342.671 78.2257 342.725 77.8568L348.795 39.3704C348.825 39.1645 348.811 38.9545 348.754 38.7545C348.697 38.5544 348.598 38.3687 348.464 38.2096C348.329 38.0502 348.161 37.9226 347.971 37.8358C347.781 37.749 347.574 37.7053 347.366 37.7077ZM332.697 58.9777C332.311 61.6613 330.963 64.113 328.903 65.8759C326.843 67.6388 324.213 68.5926 321.502 68.5595C320.439 68.5721 319.381 68.4171 318.367 68.1002C314.062 66.7198 311.606 62.5832 312.312 58.1015C312.702 55.4196 314.052 52.9701 316.111 51.2076C318.169 49.4451 320.798 48.4893 323.508 48.5175C324.572 48.5063 325.63 48.6609 326.642 48.9791C330.974 50.355 333.419 54.4916 332.708 58.9777H332.697Z" fill="#0070E0"/>
<path d="M240.323 38.66L228.297 58.9598L222.195 38.8102C222.099 38.4904 221.902 38.2103 221.634 38.0115C221.366 37.8128 221.041 37.7062 220.707 37.7077H209.857C209.67 37.7041 209.485 37.7459 209.317 37.8296C209.15 37.9133 209.005 38.0364 208.896 38.1882C208.787 38.34 208.716 38.5161 208.69 38.7013C208.663 38.8866 208.683 39.0754 208.745 39.2516L219.681 73.1913L209.792 89.1864C209.68 89.3625 209.618 89.5655 209.612 89.7739C209.606 89.9823 209.656 90.1885 209.758 90.3707C209.859 90.5529 210.008 90.7043 210.188 90.8091C210.368 90.9138 210.574 90.9679 210.782 90.9657H222.473C222.807 90.9674 223.136 90.8819 223.427 90.7176C223.718 90.5534 223.962 90.316 224.133 90.029L254.68 39.4936C254.79 39.3173 254.851 39.1145 254.855 38.9067C254.86 38.6989 254.808 38.4937 254.706 38.3127C254.603 38.1318 254.454 37.9818 254.274 37.8784C254.094 37.7751 253.889 37.7223 253.681 37.7256H241.995C241.659 37.7217 241.328 37.8059 241.034 37.9699C240.741 38.1338 240.496 38.3718 240.323 38.66Z" fill="#003087"/>
<path d="M358.588 21.307L349.71 77.505C349.659 77.8145 349.712 78.1321 349.859 78.4088C350.007 78.6854 350.242 78.9057 350.528 79.0354C350.716 79.1251 350.922 79.1699 351.13 79.1699H361.638C362.01 79.1746 362.372 79.0441 362.656 78.8027C362.94 78.5613 363.126 78.2253 363.182 77.8568L372.062 21.6588C372.095 21.4535 372.083 21.2435 372.027 21.0434C371.97 20.8433 371.871 20.6579 371.735 20.5003C371.6 20.3426 371.432 20.2159 371.243 20.1289C371.054 20.0419 370.849 19.9966 370.641 19.9961H360.132C359.76 19.9923 359.399 20.1228 359.115 20.3636C358.832 20.6043 358.645 20.9393 358.588 21.307Z" fill="#0070E0"/>
<path d="M78.8508 45.6716C76.5965 58.5228 66.1116 68.2369 52.3528 68.2369H43.6181C41.8366 68.2369 40.0417 69.8861 39.7571 71.7102L35.932 95.9896C35.7101 97.3722 35.0625 97.8316 33.662 97.8316H19.612C18.1913 97.8316 17.8551 97.3566 18.068 95.956L19.6814 79.1654L2.81688 78.2937C1.39843 78.2937 0.885279 77.5207 1.08695 76.1044L12.5937 3.14276C12.8155 1.76017 13.676 1.16634 15.072 1.16634H44.2545C58.3023 1.16634 67.1894 10.6227 68.2762 22.8845C76.6346 28.5315 80.5426 36.045 78.853 45.6694L78.8508 45.6716Z" fill="#001C64"/>
<path d="M23.957 51.9796L19.6837 79.1677L16.9812 96.2249C16.931 96.5538 16.9523 96.8896 17.0434 97.2095C17.1346 97.5295 17.2936 97.826 17.5096 98.079C17.7256 98.332 17.9936 98.5355 18.2952 98.6757C18.5969 98.8159 18.9253 98.8895 19.2579 98.8915H34.0968C34.7741 98.8907 35.4289 98.6484 35.9435 98.2081C36.4582 97.7678 36.7989 97.1584 36.9045 96.4893L40.8103 71.7057C40.9164 71.0371 41.2573 70.4282 41.7719 69.9883C42.2865 69.5484 42.9411 69.3064 43.6181 69.3057H52.3529C59.0087 69.297 65.4426 66.9109 70.4946 62.5776C75.5465 58.2442 78.8843 52.2486 79.9062 45.6716C81.4188 36.0203 76.5629 27.234 68.2516 22.8935C68.2328 23.9218 68.143 24.9476 67.9827 25.9635C66.9571 32.537 63.618 38.5283 58.5669 42.8584C53.5158 47.1885 47.0847 49.5728 40.4316 49.5819H26.7625C26.086 49.5821 25.4318 49.8237 24.9175 50.2633C24.4032 50.7028 24.0626 51.3114 23.957 51.9796Z" fill="#0070E0"/>
<path d="M19.6814 79.1677H2.40225C2.06889 79.166 1.73979 79.0926 1.43738 78.9523C1.13498 78.812 0.866373 78.6081 0.649874 78.3546C0.433376 78.1011 0.274072 77.8039 0.182818 77.4833C0.0915654 77.1626 0.0705082 76.8261 0.121081 76.4966L11.7645 2.67443C11.8691 2.00539 12.2093 1.39574 12.7237 0.955318C13.2381 0.514893 13.8928 0.272653 14.57 0.272247H44.2387C58.2865 0.272247 68.5002 10.4949 68.2605 22.8801C64.5215 20.9511 60.3692 19.9613 56.1622 19.9961H31.4278C30.7505 19.9963 30.0954 20.238 29.5803 20.6779C29.0652 21.1178 28.724 21.727 28.6178 22.396L23.9569 51.9796L19.6814 79.1677Z" fill="#003087"/>
</svg>
