<svg width="236" height="40" viewBox="0 0 236 40" fill="none" xmlns="http://www.w3.org/2000/svg">
<path d="M0.414773 39.1818V9.18182H6.38068V12.8466H6.65057C6.91572 12.2595 7.29924 11.6629 7.80114 11.0568C8.3125 10.4413 8.97538 9.92992 9.78977 9.52273C10.6136 9.10606 11.6364 8.89773 12.858 8.89773C14.4489 8.89773 15.9167 9.31439 17.2614 10.1477C18.6061 10.9716 19.6809 12.2169 20.4858 13.8835C21.2907 15.5407 21.6932 17.6193 21.6932 20.1193C21.6932 22.553 21.3002 24.608 20.5142 26.2841C19.7377 27.9508 18.6771 29.215 17.3324 30.0767C15.9972 30.929 14.5009 31.3551 12.8438 31.3551C11.6695 31.3551 10.6705 31.161 9.84659 30.7727C9.0322 30.3845 8.36458 29.8968 7.84375 29.3097C7.32292 28.7131 6.92519 28.1117 6.65057 27.5057H6.46591V39.1818H0.414773ZM6.33807 20.0909C6.33807 21.3883 6.51799 22.5199 6.87784 23.4858C7.23769 24.4517 7.75852 25.2045 8.44034 25.7443C9.12216 26.2746 9.95076 26.5398 10.9261 26.5398C11.911 26.5398 12.7443 26.2699 13.4261 25.7301C14.108 25.1809 14.6241 24.4233 14.9744 23.4574C15.3343 22.482 15.5142 21.3598 15.5142 20.0909C15.5142 18.8314 15.339 17.7235 14.9886 16.767C14.6383 15.8106 14.1222 15.0625 13.4403 14.5227C12.7585 13.983 11.9205 13.7131 10.9261 13.7131C9.94129 13.7131 9.10795 13.9735 8.42614 14.4943C7.75379 15.0152 7.23769 15.7538 6.87784 16.7102C6.51799 17.6667 6.33807 18.7936 6.33807 20.0909ZM31.9489 31.4119C30.5568 31.4119 29.3163 31.1705 28.2273 30.6875C27.1383 30.1951 26.2765 29.4706 25.642 28.5142C25.017 27.5483 24.7045 26.3456 24.7045 24.9062C24.7045 23.6941 24.9271 22.6761 25.3722 21.8523C25.8172 21.0284 26.4233 20.3655 27.1903 19.8636C27.9574 19.3617 28.8286 18.983 29.804 18.7273C30.7888 18.4716 31.821 18.2917 32.9006 18.1875C34.1695 18.0549 35.1922 17.9318 35.9688 17.8182C36.7453 17.6951 37.3087 17.5152 37.6591 17.2784C38.0095 17.0417 38.1847 16.6913 38.1847 16.2273V16.142C38.1847 15.2424 37.9006 14.5464 37.3324 14.054C36.7737 13.5616 35.9782 13.3153 34.946 13.3153C33.857 13.3153 32.9905 13.5568 32.3466 14.0398C31.7027 14.5133 31.2765 15.1098 31.0682 15.8295L25.4716 15.375C25.7557 14.0492 26.3144 12.9034 27.1477 11.9375C27.9811 10.9621 29.0559 10.214 30.3722 9.69318C31.6979 9.16288 33.232 8.89773 34.9744 8.89773C36.1866 8.89773 37.3466 9.03977 38.4545 9.32386C39.572 9.60795 40.5616 10.0483 41.4233 10.6449C42.2945 11.2415 42.9811 12.0085 43.483 12.946C43.9848 13.8741 44.2358 14.9867 44.2358 16.2841V31H38.4972V27.9744H38.3267C37.9763 28.6562 37.5076 29.2576 36.9205 29.7784C36.3333 30.2898 35.6278 30.6922 34.804 30.9858C33.9801 31.2699 33.0284 31.4119 31.9489 31.4119ZM33.6818 27.2358C34.572 27.2358 35.358 27.0606 36.0398 26.7102C36.7216 26.3504 37.2566 25.8674 37.6449 25.2614C38.0331 24.6553 38.2273 23.9687 38.2273 23.2017V20.8864C38.0379 21.0095 37.7775 21.1231 37.446 21.2273C37.1241 21.322 36.7595 21.4119 36.3523 21.4972C35.9451 21.5729 35.5379 21.6439 35.1307 21.7102C34.7235 21.767 34.3542 21.8191 34.0227 21.8665C33.3125 21.9706 32.6922 22.1364 32.1619 22.3636C31.6316 22.5909 31.2197 22.8987 30.9261 23.2869C30.6326 23.6657 30.4858 24.1392 30.4858 24.7074C30.4858 25.5312 30.7841 26.161 31.3807 26.5966C31.9867 27.0227 32.7538 27.2358 33.6818 27.2358ZM51.8849 39.1818C51.1179 39.1818 50.3982 39.1203 49.7259 38.9972C49.063 38.8835 48.5137 38.7367 48.0781 38.5568L49.4418 34.0398C50.152 34.2576 50.7912 34.3759 51.3594 34.3949C51.937 34.4138 52.4342 34.2813 52.8509 33.9972C53.277 33.7131 53.6226 33.2301 53.8878 32.5483L54.2429 31.625L46.4162 9.18182H52.7798L57.2969 25.2045H57.5241L62.0838 9.18182H68.4901L60.0099 33.358C59.6027 34.5322 59.0488 35.5549 58.348 36.4261C57.6567 37.3068 56.7808 37.9839 55.7202 38.4574C54.6596 38.9403 53.3812 39.1818 51.8849 39.1818ZM89.7401 15.4034L84.2003 15.7443C84.1056 15.2708 83.902 14.8447 83.5895 14.4659C83.277 14.0777 82.8651 13.7699 82.3537 13.5426C81.8518 13.3059 81.2505 13.1875 80.5497 13.1875C79.6122 13.1875 78.8215 13.3864 78.1776 13.7841C77.5336 14.1723 77.2116 14.6932 77.2116 15.3466C77.2116 15.8674 77.42 16.3078 77.8366 16.6676C78.2533 17.0275 78.9683 17.3163 79.9815 17.5341L83.9304 18.3295C86.0516 18.7652 87.633 19.4659 88.6747 20.4318C89.7164 21.3977 90.2372 22.6667 90.2372 24.2386C90.2372 25.6686 89.8158 26.9233 88.973 28.0028C88.1397 29.0824 86.9938 29.9252 85.5355 30.5312C84.0866 31.1278 82.4152 31.4261 80.5213 31.4261C77.633 31.4261 75.3319 30.8248 73.6179 29.6222C71.9134 28.41 70.9143 26.7623 70.6207 24.679L76.5724 24.3665C76.7524 25.2472 77.188 25.9195 77.8793 26.3835C78.5705 26.8381 79.456 27.0653 80.5355 27.0653C81.5961 27.0653 82.4484 26.8617 83.0923 26.4545C83.7457 26.0379 84.0772 25.5028 84.0866 24.8494C84.0772 24.3002 83.8452 23.8504 83.3906 23.5C82.9361 23.1402 82.2353 22.8655 81.2884 22.6761L77.5099 21.9233C75.3793 21.4972 73.7931 20.7585 72.7514 19.7074C71.7192 18.6562 71.2031 17.3163 71.2031 15.6875C71.2031 14.286 71.5819 13.0786 72.3395 12.0653C73.1065 11.0521 74.1813 10.2708 75.5639 9.72159C76.956 9.17235 78.5848 8.89773 80.4503 8.89773C83.206 8.89773 85.3745 9.48011 86.956 10.6449C88.5469 11.8097 89.4749 13.3958 89.7401 15.4034ZM100.269 31.4119C98.8771 31.4119 97.6366 31.1705 96.5476 30.6875C95.4586 30.1951 94.5968 29.4706 93.9624 28.5142C93.3374 27.5483 93.0249 26.3456 93.0249 24.9062C93.0249 23.6941 93.2474 22.6761 93.6925 21.8523C94.1375 21.0284 94.7436 20.3655 95.5107 19.8636C96.2777 19.3617 97.1489 18.983 98.1243 18.7273C99.1091 18.4716 100.141 18.2917 101.221 18.1875C102.49 18.0549 103.513 17.9318 104.289 17.8182C105.066 17.6951 105.629 17.5152 105.979 17.2784C106.33 17.0417 106.505 16.6913 106.505 16.2273V16.142C106.505 15.2424 106.221 14.5464 105.653 14.054C105.094 13.5616 104.299 13.3153 103.266 13.3153C102.177 13.3153 101.311 13.5568 100.667 14.0398C100.023 14.5133 99.5968 15.1098 99.3885 15.8295L93.7919 15.375C94.076 14.0492 94.6347 12.9034 95.468 11.9375C96.3014 10.9621 97.3762 10.214 98.6925 9.69318C100.018 9.16288 101.552 8.89773 103.295 8.89773C104.507 8.89773 105.667 9.03977 106.775 9.32386C107.892 9.60795 108.882 10.0483 109.744 10.6449C110.615 11.2415 111.301 12.0085 111.803 12.946C112.305 13.8741 112.556 14.9867 112.556 16.2841V31H106.817V27.9744H106.647C106.297 28.6562 105.828 29.2576 105.241 29.7784C104.654 30.2898 103.948 30.6922 103.124 30.9858C102.3 31.2699 101.349 31.4119 100.269 31.4119ZM102.002 27.2358C102.892 27.2358 103.678 27.0606 104.36 26.7102C105.042 26.3504 105.577 25.8674 105.965 25.2614C106.353 24.6553 106.548 23.9687 106.548 23.2017V20.8864C106.358 21.0095 106.098 21.1231 105.766 21.2273C105.444 21.322 105.08 21.4119 104.673 21.4972C104.265 21.5729 103.858 21.6439 103.451 21.7102C103.044 21.767 102.674 21.8191 102.343 21.8665C101.633 21.9706 101.013 22.1364 100.482 22.3636C99.9519 22.5909 99.54 22.8987 99.2464 23.2869C98.9529 23.6657 98.8061 24.1392 98.8061 24.7074C98.8061 25.5312 99.1044 26.161 99.701 26.5966C100.307 27.0227 101.074 27.2358 102.002 27.2358ZM128.984 9.18182V13.7273H115.518V9.18182H128.984ZM118.6 31V7.60511C118.6 6.02367 118.908 4.71212 119.523 3.67045C120.148 2.62879 121.001 1.84754 122.08 1.3267C123.16 0.805869 124.386 0.545453 125.759 0.545453C126.687 0.545453 127.535 0.616476 128.302 0.758523C129.078 0.900568 129.656 1.02841 130.035 1.14205L128.955 5.6875C128.719 5.61174 128.425 5.54072 128.075 5.47443C127.734 5.40814 127.383 5.375 127.023 5.375C126.133 5.375 125.513 5.58333 125.163 6C124.812 6.4072 124.637 6.98011 124.637 7.71875V31H118.6ZM141.842 31.4261C139.598 31.4261 137.666 30.9716 136.047 30.0625C134.437 29.1439 133.196 27.8466 132.325 26.1705C131.454 24.4848 131.018 22.4915 131.018 20.1903C131.018 17.946 131.454 15.9763 132.325 14.2812C133.196 12.5862 134.423 11.2652 136.004 10.3182C137.595 9.37121 139.461 8.89773 141.601 8.89773C143.04 8.89773 144.38 9.12973 145.621 9.59375C146.871 10.0483 147.96 10.7348 148.888 11.6534C149.825 12.572 150.554 13.7273 151.075 15.1193C151.596 16.5019 151.857 18.1212 151.857 19.9773V21.6392H133.433V17.8892H146.161C146.161 17.018 145.971 16.2462 145.592 15.5739C145.214 14.9015 144.688 14.3759 144.016 13.9972C143.353 13.6089 142.581 13.4148 141.7 13.4148C140.782 13.4148 139.967 13.6278 139.257 14.054C138.556 14.4706 138.007 15.0341 137.609 15.7443C137.212 16.4451 137.008 17.2263 136.999 18.0881V21.6534C136.999 22.733 137.197 23.6657 137.595 24.4517C138.002 25.2377 138.575 25.8438 139.314 26.2699C140.053 26.696 140.929 26.9091 141.942 26.9091C142.614 26.9091 143.23 26.8144 143.788 26.625C144.347 26.4356 144.825 26.1515 145.223 25.7727C145.621 25.3939 145.924 24.9299 146.132 24.3807L151.729 24.75C151.445 26.0947 150.862 27.2689 149.982 28.2727C149.11 29.267 147.983 30.0436 146.601 30.6023C145.228 31.1515 143.642 31.4261 141.842 31.4261ZM165.436 31.4403C163.324 31.4403 161.506 30.9621 159.982 30.0057C158.466 29.0398 157.302 27.7093 156.487 26.0142C155.673 24.3191 155.266 22.3778 155.266 20.1903C155.266 17.9744 155.682 16.0189 156.516 14.3239C157.349 12.6193 158.523 11.2888 160.038 10.3324C161.554 9.37595 163.339 8.89773 165.393 8.89773C167.051 8.89773 168.528 9.20549 169.825 9.82102C171.123 10.4271 172.169 11.2794 172.964 12.3778C173.769 13.4763 174.248 14.7595 174.399 16.2273H170.266C170.038 15.2045 169.518 14.3239 168.703 13.5852C167.898 12.8466 166.819 12.4773 165.464 12.4773C164.281 12.4773 163.244 12.7898 162.354 13.4148C161.473 14.0303 160.786 14.911 160.294 16.0568C159.802 17.1932 159.555 18.5379 159.555 20.0909C159.555 21.6818 159.797 23.0549 160.28 24.2102C160.763 25.3655 161.445 26.2604 162.325 26.8949C163.215 27.5294 164.262 27.8466 165.464 27.8466C166.269 27.8466 166.999 27.6998 167.652 27.4062C168.315 27.1032 168.869 26.6723 169.314 26.1136C169.768 25.5549 170.086 24.8826 170.266 24.0966H174.399C174.248 25.5076 173.788 26.767 173.021 27.875C172.254 28.983 171.227 29.8542 169.939 30.4886C168.661 31.1231 167.16 31.4403 165.436 31.4403ZM185.29 31.483C183.908 31.483 182.658 31.2273 181.54 30.7159C180.423 30.1951 179.538 29.4422 178.884 28.4574C178.24 27.4725 177.918 26.2652 177.918 24.8352C177.918 23.6042 178.155 22.5909 178.629 21.7955C179.102 21 179.741 20.3703 180.546 19.9062C181.351 19.4422 182.251 19.0919 183.245 18.8551C184.239 18.6184 185.253 18.4384 186.285 18.3153C187.592 18.1638 188.652 18.0407 189.467 17.946C190.281 17.8419 190.873 17.6761 191.242 17.4489C191.612 17.2216 191.796 16.8523 191.796 16.3409V16.2415C191.796 15.0009 191.446 14.0398 190.745 13.358C190.054 12.6761 189.022 12.3352 187.648 12.3352C186.219 12.3352 185.092 12.6525 184.268 13.2869C183.453 13.9119 182.89 14.608 182.577 15.375L178.586 14.4659C179.059 13.1402 179.751 12.0701 180.66 11.2557C181.578 10.4318 182.634 9.83523 183.827 9.46591C185.021 9.08712 186.275 8.89773 187.592 8.89773C188.463 8.89773 189.386 9.00189 190.362 9.21023C191.346 9.40909 192.265 9.77841 193.117 10.3182C193.979 10.858 194.684 11.6297 195.234 12.6335C195.783 13.6278 196.058 14.9205 196.058 16.5114V31H191.91V28.017H191.739C191.465 28.5663 191.053 29.1061 190.504 29.6364C189.954 30.1667 189.249 30.607 188.387 30.9574C187.525 31.3078 186.493 31.483 185.29 31.483ZM186.214 28.0739C187.388 28.0739 188.392 27.8419 189.225 27.3778C190.068 26.9138 190.707 26.3078 191.143 25.5597C191.588 24.8021 191.81 23.9924 191.81 23.1307V20.3182C191.659 20.4697 191.365 20.6117 190.93 20.7443C190.504 20.8674 190.016 20.9763 189.467 21.071C188.917 21.1562 188.382 21.2367 187.862 21.3125C187.341 21.3788 186.905 21.4356 186.555 21.483C185.731 21.5871 184.978 21.7623 184.296 22.0085C183.624 22.2547 183.084 22.6098 182.677 23.0739C182.279 23.5284 182.08 24.1345 182.08 24.892C182.08 25.9432 182.469 26.7386 183.245 27.2784C184.022 27.8087 185.011 28.0739 186.214 28.0739ZM201.714 31V9.18182H205.82V12.6477H206.047C206.445 11.4735 207.145 10.5502 208.149 9.87784C209.162 9.19602 210.308 8.85511 211.587 8.85511C211.852 8.85511 212.164 8.86458 212.524 8.88352C212.893 8.90246 213.182 8.92614 213.391 8.95455V13.017C213.22 12.9697 212.917 12.9176 212.482 12.8608C212.046 12.7945 211.61 12.7614 211.175 12.7614C210.171 12.7614 209.276 12.9744 208.49 13.4006C207.714 13.8172 207.098 14.3996 206.643 15.1477C206.189 15.8864 205.962 16.7292 205.962 17.6761V31H201.714ZM224.452 31.4261C222.691 31.4261 221.119 30.9763 219.737 30.0767C218.363 29.1676 217.284 27.875 216.498 26.1989C215.721 24.5133 215.333 22.4915 215.333 20.1335C215.333 17.7756 215.726 15.7585 216.512 14.0824C217.308 12.4062 218.397 11.1231 219.779 10.233C221.162 9.3428 222.729 8.89773 224.481 8.89773C225.835 8.89773 226.924 9.125 227.748 9.57955C228.581 10.0246 229.225 10.5455 229.68 11.142C230.144 11.7386 230.504 12.2642 230.759 12.7188H231.015V1.90909H235.262V31H231.114V27.6051H230.759C230.504 28.0691 230.134 28.5994 229.651 29.196C229.178 29.7926 228.524 30.3134 227.691 30.7585C226.858 31.2036 225.778 31.4261 224.452 31.4261ZM225.39 27.804C226.612 27.804 227.644 27.482 228.487 26.8381C229.339 26.1847 229.983 25.2803 230.418 24.125C230.863 22.9697 231.086 21.625 231.086 20.0909C231.086 18.5758 230.868 17.25 230.433 16.1136C229.997 14.9773 229.358 14.0919 228.515 13.4574C227.672 12.8229 226.63 12.5057 225.39 12.5057C224.112 12.5057 223.046 12.8371 222.194 13.5C221.342 14.1629 220.698 15.0672 220.262 16.2131C219.836 17.3589 219.623 18.6515 219.623 20.0909C219.623 21.5492 219.841 22.8608 220.276 24.0256C220.712 25.1903 221.356 26.1136 222.208 26.7955C223.07 27.4678 224.13 27.804 225.39 27.804Z" fill="#1814F3"/>
</svg>
