<svg width="87" height="31" viewBox="0 0 87 31" fill="none" xmlns="http://www.w3.org/2000/svg">
<path d="M17.3097 9.27557C17.196 8.12973 16.7083 7.23958 15.8466 6.60511C14.9848 5.97064 13.8153 5.65341 12.3381 5.65341C11.3343 5.65341 10.4867 5.79545 9.79545 6.07955C9.10417 6.35417 8.57386 6.73769 8.20455 7.23011C7.8447 7.72254 7.66477 8.28125 7.66477 8.90625C7.64583 9.42708 7.75473 9.88163 7.99148 10.2699C8.23769 10.6581 8.57386 10.9943 9 11.2784C9.42614 11.553 9.91856 11.7945 10.4773 12.0028C11.036 12.2017 11.6326 12.3722 12.267 12.5142L14.8807 13.1392C16.1496 13.4233 17.3144 13.8021 18.375 14.2756C19.4356 14.7491 20.3542 15.3314 21.1307 16.0227C21.9072 16.714 22.5085 17.5284 22.9347 18.4659C23.3703 19.4034 23.5928 20.4782 23.6023 21.6903C23.5928 23.4706 23.1383 25.0142 22.2386 26.321C21.3485 27.6184 20.0606 28.6269 18.375 29.3466C16.6989 30.0568 14.6771 30.4119 12.3097 30.4119C9.96117 30.4119 7.91572 30.0521 6.1733 29.3324C4.44034 28.6127 3.08617 27.5473 2.1108 26.1364C1.14489 24.7159 0.638258 22.9593 0.590909 20.8665H6.54261C6.6089 21.8419 6.88826 22.6562 7.38068 23.3097C7.88258 23.9536 8.55019 24.4413 9.38352 24.7727C10.2263 25.0947 11.178 25.2557 12.2386 25.2557C13.2803 25.2557 14.1847 25.1042 14.9517 24.8011C15.7282 24.4981 16.3295 24.0767 16.7557 23.5369C17.1818 22.9972 17.3949 22.3769 17.3949 21.6761C17.3949 21.0227 17.2008 20.4735 16.8125 20.0284C16.4337 19.5833 15.875 19.2045 15.1364 18.892C14.4072 18.5795 13.5123 18.2955 12.4517 18.0398L9.28409 17.2443C6.83144 16.6477 4.89489 15.715 3.47443 14.446C2.05398 13.1771 1.34848 11.4678 1.35795 9.31818C1.34848 7.55682 1.81723 6.01799 2.7642 4.7017C3.72064 3.38542 5.0322 2.35795 6.69886 1.61932C8.36553 0.880681 10.2595 0.511363 12.3807 0.511363C14.5398 0.511363 16.4242 0.880681 18.0341 1.61932C19.6534 2.35795 20.9129 3.38542 21.8125 4.7017C22.7121 6.01799 23.1761 7.54261 23.2045 9.27557H17.3097ZM27.7393 0.90909H35.3246L43.3359 20.4545H43.6768L51.6882 0.90909H59.2734V30H53.3075V11.0653H53.0661L45.5376 29.858H41.4751L33.9467 10.9943H33.7053V30H27.7393V0.90909ZM80.1222 9.27557C80.0085 8.12973 79.5208 7.23958 78.6591 6.60511C77.7973 5.97064 76.6278 5.65341 75.1506 5.65341C74.1468 5.65341 73.2992 5.79545 72.608 6.07955C71.9167 6.35417 71.3864 6.73769 71.017 7.23011C70.6572 7.72254 70.4773 8.28125 70.4773 8.90625C70.4583 9.42708 70.5672 9.88163 70.804 10.2699C71.0502 10.6581 71.3864 10.9943 71.8125 11.2784C72.2386 11.553 72.7311 11.7945 73.2898 12.0028C73.8485 12.2017 74.4451 12.3722 75.0795 12.5142L77.6932 13.1392C78.9621 13.4233 80.1269 13.8021 81.1875 14.2756C82.2481 14.7491 83.1667 15.3314 83.9432 16.0227C84.7197 16.714 85.321 17.5284 85.7472 18.4659C86.1828 19.4034 86.4053 20.4782 86.4148 21.6903C86.4053 23.4706 85.9508 25.0142 85.0511 26.321C84.161 27.6184 82.8731 28.6269 81.1875 29.3466C79.5114 30.0568 77.4896 30.4119 75.1222 30.4119C72.7737 30.4119 70.7282 30.0521 68.9858 29.3324C67.2528 28.6127 65.8987 27.5473 64.9233 26.1364C63.9574 24.7159 63.4508 22.9593 63.4034 20.8665H69.3551C69.4214 21.8419 69.7008 22.6562 70.1932 23.3097C70.6951 23.9536 71.3627 24.4413 72.196 24.7727C73.0388 25.0947 73.9905 25.2557 75.0511 25.2557C76.0928 25.2557 76.9972 25.1042 77.7642 24.8011C78.5407 24.4981 79.142 24.0767 79.5682 23.5369C79.9943 22.9972 80.2074 22.3769 80.2074 21.6761C80.2074 21.0227 80.0133 20.4735 79.625 20.0284C79.2462 19.5833 78.6875 19.2045 77.9489 18.892C77.2197 18.5795 76.3248 18.2955 75.2642 18.0398L72.0966 17.2443C69.6439 16.6477 67.7074 15.715 66.2869 14.446C64.8665 13.1771 64.161 11.4678 64.1705 9.31818C64.161 7.55682 64.6297 6.01799 65.5767 4.7017C66.5331 3.38542 67.8447 2.35795 69.5114 1.61932C71.178 0.880681 73.072 0.511363 75.1932 0.511363C77.3523 0.511363 79.2367 0.880681 80.8466 1.61932C82.4659 2.35795 83.7254 3.38542 84.625 4.7017C85.5246 6.01799 85.9886 7.54261 86.017 9.27557H80.1222Z" fill="black"/>
</svg>
